<?xml version="1.0" ?><svg enable-background="new 0 0 32 32" id="Layer_1" version="1.1" viewBox="0 0 32 32" xml:space="preserve" xmlns="http://www.w3.org/2000/svg" xmlns:xlink="http://www.w3.org/1999/xlink"><g><path d="M30,2v28H2V2H30 M31,1H1v30h30V1L31,1z" fill="#414753"/><path d="M30,2v28H2V2H30 M31,1H1v30h30V1L31,1z" fill="#414753"/></g><path d="M22.561,7.252H9.439c-1.235,0-2.187,0.952-2.187,2.187V22.56c0,1.234,0.952,2.187,2.187,2.187H22.56  c1.234,0,2.187-0.952,2.187-2.187V9.439C24.748,8.204,23.796,7.252,22.561,7.252z M16.013,12.563c1.94,0,3.512,1.524,3.512,3.404  c0,1.879-1.572,3.404-3.512,3.404c-1.939,0-3.511-1.525-3.511-3.404C12.502,14.087,14.075,12.563,16.013,12.563z M22.561,22.014  c0,0.383-0.164,0.547-0.547,0.547H9.986c-0.382,0-0.547-0.163-0.547-0.547V14.36l1.363,0.296c-0.146,0.476-0.226,0.979-0.226,1.5  c0,2.907,2.436,5.267,5.436,5.267c3.003,0,5.436-2.359,5.436-5.267c0-0.522-0.079-1.025-0.225-1.5l1.336-0.296v7.654H22.561z   M22.561,12.172c0,0.302-0.245,0.547-0.547,0.547h-2.187c-0.302,0-0.547-0.245-0.547-0.547V9.986c0-0.302,0.245-0.547,0.547-0.547  h2.187c0.302,0,0.547,0.245,0.547,0.547V12.172z" fill="#414753"/></svg>