<svg xmlns="http://www.w3.org/2000/svg" viewBox="0 0 32 32">
  <g fill="#00b1b3">
    <path d="M30 2v28H2V2h28m1-1H1v30h30V1z"/>
    <path d="M30 2v28H2V2h28m1-1H1v30h30V1z"/>
    <path d="M23.872 22.524v-5.822c0-3.119-1.665-4.571-3.885-4.571-1.792 0-2.594.986-3.042 1.677V12.37H13.57c.045.953 0 10.154 0 10.154h3.375v-5.671c0-.303.022-.606.111-.823.244-.606.799-1.234 1.731-1.234 1.222 0 1.71.931 1.71 2.296v5.433l3.375-.001zm-13.857-11.54c1.177 0 1.91-.78 1.91-1.755-.022-.996-.733-1.754-1.887-1.754s-1.91.758-1.91 1.754c0 .975.733 1.755 1.866 1.755h.021zm1.687 11.54V12.37H8.327v10.154h3.375z"/>
  </g>
</svg>
