<?xml version="1.0" ?><svg enable-background="new 0 0 32 32" version="1.1" viewBox="0 0 32 32" xml:space="preserve" xmlns="http://www.w3.org/2000/svg" xmlns:xlink="http://www.w3.org/1999/xlink"><g id="Line"><g><path d="M30,2v28H2V2H30 M31,1H1v30h30V1L31,1z" fill="#414753"/><path d="M30,2v28H2V2H30 M31,1H1v30h30V1L31,1z" fill="#414753"/></g><path d="M18.141,9.16c-1.529,0.556-2.495,1.991-2.385,3.562l0.037,0.606l-0.612-0.074   c-2.226-0.284-4.171-1.249-5.823-2.869L8.55,9.58l-0.208,0.594c-0.44,1.323-0.159,2.721,0.758,3.661   c0.489,0.52,0.379,0.594-0.465,0.284c-0.294-0.099-0.55-0.173-0.575-0.136c-0.085,0.087,0.208,1.212,0.44,1.657   c0.318,0.619,0.966,1.224,1.676,1.583l0.6,0.284l-0.709,0.012c-0.685,0-0.709,0.012-0.636,0.273   c0.245,0.804,1.211,1.657,2.287,2.029l0.758,0.259l-0.66,0.396c-0.978,0.57-2.128,0.891-3.278,0.915   c-0.551,0.012-1.004,0.062-1.004,0.099c0,0.123,1.493,0.816,2.361,1.088c2.605,0.804,5.701,0.457,8.025-0.915   c1.651-0.977,3.302-2.919,4.074-4.799c0.416-1.001,0.832-2.832,0.832-3.709c0-0.569,0.037-0.643,0.722-1.323   c0.404-0.396,0.783-0.828,0.856-0.952c0.123-0.235,0.11-0.235-0.514-0.025c-1.04,0.371-1.187,0.322-0.673-0.235   c0.379-0.396,0.832-1.113,0.832-1.323c0-0.037-0.183,0.025-0.392,0.136c-0.22,0.124-0.709,0.309-1.076,0.42l-0.66,0.211l-0.6-0.409   c-0.33-0.222-0.795-0.47-1.04-0.544C19.658,8.938,18.703,8.962,18.141,9.16z" fill="#414753"/></g></svg>