<svg xmlns="http://www.w3.org/2000/svg" viewBox="0 0 32 32">
  <g fill="#00b1b3">
    <path d="M30 2v28H2V2h28m1-1H1v30h30V1z"/>
    <path d="M30 2v28H2V2h28m1-1H1v30h30V1z"/>
    <path d="M18.141 9.16c-1.529.556-2.495 1.991-2.385 3.562l.037.606-.612-.074c-2.226-.284-4.171-1.249-5.823-2.869L8.55 9.58l-.208.594c-.44 1.323-.159 2.721.758 3.661.489.52.379.594-.465.284-.294-.099-.55-.173-.575-.136-.085.087.208 1.212.44 1.657.318.619.966 1.224 1.676 1.583l.6.284-.709.012c-.685 0-.709.012-.636.273.245.804 1.211 1.657 2.287 2.029l.758.259-.66.396c-.978.57-2.128.891-3.278.915-.551.012-1.004.062-1.004.099 0 .123 1.493.816 2.361 1.088 2.605.804 5.701.457 8.025-.915 1.651-.977 3.302-2.919 4.074-4.799.416-1.001.832-2.832.832-3.709 0-.569.037-.643.722-1.323.404-.396.783-.828.856-.952.123-.235.11-.235-.514-.025-1.04.371-1.187.322-.673-.235.379-.396.832-1.113.832-1.323 0-.037-.183.025-.392.136-.22.124-.709.309-1.076.42l-.66.211-.6-.409c-.33-.222-.795-.47-1.04-.544-.623-.173-1.578-.149-2.14.049z"/>
  </g>
</svg>
